<svg viewBox="0 0 600 400" xmlns="http://www.w3.org/2000/svg">
<rect width="600" height="400" fill="#F7F4EF"/>
<circle cx="300" cy="200" r="160" fill="#EDE9E1"/>
<g transform="translate(300,205)">
<path d="M-70,-115 L40,-115 L70,-85 L70,115 L-70,115 Z" fill="#1A1814"/>
<path d="M40,-115 L40,-85 L70,-85 Z" fill="#2E2B26"/>
<line x1="-45" y1="-50" x2="45" y2="-50" stroke="#C4A882" stroke-width="3"/>
<line x1="-45" y1="-25" x2="45" y2="-25" stroke="#F7F4EF" stroke-width="2.5" opacity="0.7"/>
<line x1="-45" y1="0" x2="45" y2="0" stroke="#F7F4EF" stroke-width="2.5" opacity="0.7"/>
<line x1="-45" y1="25" x2="15" y2="25" stroke="#F7F4EF" stroke-width="2.5" opacity="0.7"/>
<circle cx="20" cy="70" r="22" fill="#C4A882"/>
<path d="M10,70 L18,78 L32,60" stroke="#1A1814" stroke-width="4" stroke-linecap="round" stroke-linejoin="round" fill="none"/>
</g>
<circle cx="140" cy="100" r="3" fill="#8B6F4E" opacity="0.5"/>
<circle cx="470" cy="120" r="4" fill="#8B6F4E" opacity="0.4"/>
<circle cx="480" cy="300" r="3" fill="#8B6F4E" opacity="0.5"/>
<circle cx="110" cy="310" r="4" fill="#8B6F4E" opacity="0.4"/>
</svg>
